{
  "accessors": [
    {
      "bufferView": 2,
      "componentType": 5126,
      "count": 33682,
      "max": [
        164.06768798828125,
        90.14837646484375,
        368.8500671386719
      ],
      "min": [
        -164.2067413330078,
        -90.14837646484375,
        -368.8500671386719
      ],
      "type": "VEC3"
    },
    {
      "bufferView": 2,
      "byteOffset": 404184,
      "componentType": 5126,
      "count": 33682,
      "max": [
        1.0,
        1.0,
        1.0
      ],
      "min": [
        -1.0,
        -1.0,
        -1.0
      ],
      "type": "VEC3"
    },
    {
      "bufferView": 1,
      "componentType": 5126,
      "count": 33682,
      "max": [
        0.9944155216217041,
        0.9961857199668884
      ],
      "min": [
        0.005520253907889128,
        0.00475812004879117
      ],
      "type": "VEC2"
    },
    {
      "bufferView": 1,
      "byteOffset": 269456,
      "componentType": 5126,
      "count": 33682,
      "max": [
        0.9944155216217041,
        0.9961857199668884
      ],
      "min": [
        0.005520253907889128,
        0.00475812004879117
      ],
      "type": "VEC2"
    },
    {
      "bufferView": 1,
      "byteOffset": 538912,
      "componentType": 5126,
      "count": 33682,
      "max": [
        0.9944155216217041,
        0.9961857199668884
      ],
      "min": [
        0.005520253907889128,
        0.00475812004879117
      ],
      "type": "VEC2"
    },
    {
      "bufferView": 1,
      "byteOffset": 808368,
      "componentType": 5126,
      "count": 33682,
      "max": [
        0.9944155216217041,
        0.9961857199668884
      ],
      "min": [
        0.005520253907889128,
        0.00475812004879117
      ],
      "type": "VEC2"
    },
    {
      "bufferView": 1,
      "byteOffset": 1077824,
      "componentType": 5126,
      "count": 33682,
      "max": [
        0.9944155216217041,
        0.9961857199668884
      ],
      "min": [
        0.005520253907889128,
        0.00475812004879117
      ],
      "type": "VEC2"
    },
    {
      "bufferView": 1,
      "byteOffset": 1347280,
      "componentType": 5126,
      "count": 33682,
      "max": [
        0.9944155216217041,
        0.9961857199668884
      ],
      "min": [
        0.005520253907889128,
        0.00475812004879117
      ],
      "type": "VEC2"
    },
    {
      "bufferView": 1,
      "byteOffset": 1616736,
      "componentType": 5126,
      "count": 33682,
      "max": [
        0.9944155216217041,
        0.9961857199668884
      ],
      "min": [
        0.005520253907889128,
        0.00475812004879117
      ],
      "type": "VEC2"
    },
    {
      "bufferView": 1,
      "byteOffset": 1886192,
      "componentType": 5126,
      "count": 33682,
      "max": [
        0.9944155216217041,
        0.9961857199668884
      ],
      "min": [
        0.005520253907889128,
        0.00475812004879117
      ],
      "type": "VEC2"
    },
    {
      "bufferView": 0,
      "componentType": 5125,
      "count": 100914,
      "type": "SCALAR"
    },
    {
      "bufferView": 2,
      "byteOffset": 808368,
      "componentType": 5126,
      "count": 1539,
      "max": [
        164.2067413330078,
        78.8329849243164,
        282.04412841796875
      ],
      "min": [
        -164.1311492919922,
        -85.93343353271484,
        -368.09295654296875
      ],
      "type": "VEC3"
    },
    {
      "bufferView": 2,
      "byteOffset": 826836,
      "componentType": 5126,
      "count": 1539,
      "max": [
        0.9999704360961914,
        1.0,
        1.0
      ],
      "min": [
        -0.999811053276062,
        -1.0,
        -0.9999976754188538
      ],
      "type": "VEC3"
    },
    {
      "bufferView": 1,
      "byteOffset": 2155648,
      "componentType": 5126,
      "count": 1539,
      "max": [
        4.20309591293335,
        1.2021299600601196
      ],
      "min": [
        -0.3385322093963623,
        -0.8560339212417603
      ],
      "type": "VEC2"
    },
    {
      "bufferView": 1,
      "byteOffset": 2167960,
      "componentType": 5126,
      "count": 1539,
      "max": [
        4.20309591293335,
        1.2021299600601196
      ],
      "min": [
        -0.3385322093963623,
        -0.8560339212417603
      ],
      "type": "VEC2"
    },
    {
      "bufferView": 1,
      "byteOffset": 2180272,
      "componentType": 5126,
      "count": 1539,
      "max": [
        4.20309591293335,
        1.2021299600601196
      ],
      "min": [
        -0.3385322093963623,
        -0.8560339212417603
      ],
      "type": "VEC2"
    },
    {
      "bufferView": 1,
      "byteOffset": 2192584,
      "componentType": 5126,
      "count": 1539,
      "max": [
        4.20309591293335,
        1.2021299600601196
      ],
      "min": [
        -0.3385322093963623,
        -0.8560339212417603
      ],
      "type": "VEC2"
    },
    {
      "bufferView": 1,
      "byteOffset": 2204896,
      "componentType": 5126,
      "count": 1539,
      "max": [
        4.20309591293335,
        1.2021299600601196
      ],
      "min": [
        -0.3385322093963623,
        -0.8560339212417603
      ],
      "type": "VEC2"
    },
    {
      "bufferView": 1,
      "byteOffset": 2217208,
      "componentType": 5126,
      "count": 1539,
      "max": [
        4.20309591293335,
        1.2021299600601196
      ],
      "min": [
        -0.3385322093963623,
        -0.8560339212417603
      ],
      "type": "VEC2"
    },
    {
      "bufferView": 0,
      "byteOffset": 403656,
      "componentType": 5125,
      "count": 4398,
      "type": "SCALAR"
    }
  ],
  "asset": {
    "extras": {
      "author": "Wholock (https://sketchfab.com/wholock)",
      "license": "CC-BY-4.0 (http://creativecommons.org/licenses/by/4.0/)",
      "source": "https://sketchfab.com/3d-models/star-trek-constitution-class-tos-6089a6e12a934b1caf30b0a7659405cc",
      "title": "Star Trek - Constitution Class (TOS)"
    },
    "generator": "Sketchfab-12.68.0",
    "version": "2.0"
  },
  "bufferViews": [
    {
      "buffer": 0,
      "byteLength": 421248,
      "name": "floatBufferViews",
      "target": 34963
    },
    {
      "buffer": 0,
      "byteLength": 2229520,
      "byteOffset": 421248,
      "byteStride": 8,
      "name": "floatBufferViews",
      "target": 34962
    },
    {
      "buffer": 0,
      "byteLength": 845304,
      "byteOffset": 2650768,
      "byteStride": 12,
      "name": "floatBufferViews",
      "target": 34962
    }
  ],
  "buffers": [
    {
      "byteLength": 3496072,
      "uri": "scene.bin"
    }
  ],
  "images": [
    {
      "uri": "textures/Constitution_class_diffuse_1K_baseColor.png"
    },
    {
      "uri": "textures/Constitution_class_diffuse_1K_metallicRoughness.png"
    },
    {
      "uri": "textures/Constitution_class_diffuse_1K_emissive.png"
    },
    {
      "uri": "textures/Constitution_class_decals_baseColor.png"
    },
    {
      "uri": "textures/Constitution_class_decals_emissive.png"
    }
  ],
  "materials": [
    {
      "doubleSided": true,
      "emissiveFactor": [
        1.0,
        1.0,
        1.0
      ],
      "emissiveTexture": {
        "index": 2
      },
      "name": "Constitution_class_diffuse_1K",
      "pbrMetallicRoughness": {
        "baseColorTexture": {
          "index": 0
        },
        "metallicRoughnessTexture": {
          "index": 1
        }
      }
    },
    {
      "alphaMode": "BLEND",
      "doubleSided": true,
      "emissiveTexture": {
        "index": 4
      },
      "name": "Constitution_class_decals",
      "pbrMetallicRoughness": {
        "baseColorTexture": {
          "index": 3
        },
        "metallicFactor": 0.0
      }
    }
  ],
  "meshes": [
    {
      "name": "Constitution_Class_ToS_Constitution_class_diffuse_1K_0",
      "primitives": [
        {
          "attributes": {
            "NORMAL": 1,
            "POSITION": 0,
            "TEXCOORD_0": 2,
            "TEXCOORD_1": 3,
            "TEXCOORD_2": 4,
            "TEXCOORD_3": 5,
            "TEXCOORD_4": 6,
            "TEXCOORD_5": 7,
            "TEXCOORD_6": 8,
            "TEXCOORD_7": 9
          },
          "indices": 10,
          "material": 0,
          "mode": 4
        }
      ]
    },
    {
      "name": "Constitution_Class_ToS_Constitution_class_decals_0",
      "primitives": [
        {
          "attributes": {
            "NORMAL": 12,
            "POSITION": 11,
            "TEXCOORD_0": 13,
            "TEXCOORD_1": 14,
            "TEXCOORD_2": 15,
            "TEXCOORD_3": 16,
            "TEXCOORD_4": 17,
            "TEXCOORD_5": 18
          },
          "indices": 19,
          "material": 1,
          "mode": 4
        }
      ]
    }
  ],
  "nodes": [
    {
      "children": [
        1
      ],
      "matrix": [
        -1.0,
        -6.290011496532519e-32,
        2.832769343193999e-16,
        0.0,
        2.832769343193999e-16,
        -2.220446049250313e-16,
        1.0,
        0.0,
        0.0,
        1.0,
        2.220446049250313e-16,
        0.0,
        0.0004425048828125,
        3.3881317890172014e-20,
        -0.000152587890625,
        1.0
      ],
      "name": "Sketchfab_model"
    },
    {
      "children": [
        2
      ],
      "matrix": [
        1.0,
        0.0,
        0.0,
        0.0,
        0.0,
        0.0,
        1.0,
        0.0,
        0.0,
        -1.0,
        0.0,
        0.0,
        0.0,
        0.0,
        0.0,
        1.0
      ],
      "name": "197f945c788947a48a42b7fa9bdfba89.fbx"
    },
    {
      "children": [
        3,
        6,
        9
      ],
      "name": "RootNode"
    },
    {
      "children": [
        4,
        5
      ],
      "name": "Constitution_Class_ToS"
    },
    {
      "mesh": 0,
      "name": "Constitution_Class_ToS_Constitution_class_diffuse_1K_0"
    },
    {
      "mesh": 1,
      "name": "Constitution_Class_ToS_Constitution_class_decals_0"
    },
    {
      "children": [
        7
      ],
      "matrix": [
        0.7071067811865476,
        0.0,
        0.7071067811865475,
        0.0,
        -0.5792279653395692,
        0.5735764363510459,
        0.5792279653395694,
        0.0,
        -0.4055797876726388,
        -0.819152044288992,
        0.4055797876726388,
        0.0,
        -200.0,
        200.0,
        200.0,
        1.0
      ],
      "name": "Light"
    },
    {
      "children": [
        8
      ],
      "matrix": [
        1.0,
        0.0,
        0.0,
        0.0,
        0.0,
        2.220446049250313e-16,
        1.0,
        0.0,
        0.0,
        -1.0,
        2.220446049250313e-16,
        0.0,
        0.0,
        0.0,
        0.0,
        1.0
      ],
      "name": "Object_7"
    },
    {
      "name": "Object_8"
    },
    {
      "children": [
        10
      ],
      "matrix": [
        2.220446049250313e-16,
        0.0,
        -1.0,
        0.0,
        0.0,
        1.0,
        0.0,
        0.0,
        1.0,
        0.0,
        2.220446049250313e-16,
        0.0,
        0.0,
        0.0,
        999.4039306640625,
        1.0
      ],
      "name": "Camera"
    },
    {
      "name": "Object_10"
    }
  ],
  "samplers": [
    {
      "magFilter": 9729,
      "minFilter": 9987,
      "wrapS": 10497,
      "wrapT": 10497
    }
  ],
  "scene": 0,
  "scenes": [
    {
      "name": "Sketchfab_Scene",
      "nodes": [
        0
      ]
    }
  ],
  "textures": [
    {
      "sampler": 0,
      "source": 0
    },
    {
      "sampler": 0,
      "source": 1
    },
    {
      "sampler": 0,
      "source": 2
    },
    {
      "sampler": 0,
      "source": 3
    },
    {
      "sampler": 0,
      "source": 4
    }
  ]
}
