<svg xmlns="http://www.w3.org/2000/svg" version="1.1" xmlns:xlink="http://www.w3.org/1999/xlink" xmlns:svgjs="http://svgjs.dev/svgjs" width="2000" height="2000" viewBox="0 0 2000 2000"><g transform="matrix(1,0,0,1,-0.28443113772425477,-0.28443113772459583)"><svg viewBox="0 0 334 334" data-background-color="#ffffff" preserveAspectRatio="xMidYMid meet" height="2000" width="2000" xmlns="http://www.w3.org/2000/svg" xmlns:xlink="http://www.w3.org/1999/xlink"><g id="tight-bounds" transform="matrix(1,0,0,1,0.04749999999998522,0.04750000000001364)"><svg viewBox="0 0 333.90454557049503 333.90454557049503" height="333.90454557049503" width="333.90454557049503"><g><svg></svg></g><g><svg viewBox="0 0 333.90454557049503 333.90454557049503" height="333.90454557049503" width="333.90454557049503"><g><path d="M0 166.952c0-92.205 74.747-166.952 166.952-166.952 92.205 0 166.952 74.747 166.953 166.952 0 92.205-74.747 166.952-166.953 166.953-92.205 0-166.952-74.747-166.952-166.953zM166.952 316.63c82.665 0 149.677-67.013 149.678-149.678 0-82.665-67.013-149.677-149.678-149.677-82.665 0-149.677 67.013-149.677 149.677 0 82.665 67.013 149.677 149.677 149.678z" data-fill-palette-color="tertiary" fill="#ee3e38" stroke="transparent"></path><ellipse rx="160.27418187383762" ry="160.27418187383762" cx="166.95227278524752" cy="166.95227278524752" fill="#ee3e38" stroke="transparent" stroke-width="0" fill-opacity="1" data-fill-palette-color="tertiary"></ellipse></g><g transform="matrix(1,0,0,1,80.90885206920302,71.17305217166896)"><svg viewBox="0 0 172.086841432089 191.55844122715712" height="191.55844122715712" width="172.086841432089"><g><svg viewBox="0 0 172.086841432089 191.55844122715712" height="191.55844122715712" width="172.086841432089"><g><svg viewBox="0 0 172.086841432089 191.55844122715712" height="191.55844122715712" width="172.086841432089"><g id="textblocktransform"><svg viewBox="0 0 172.086841432089 191.55844122715712" height="191.55844122715712" width="172.086841432089" id="textblock"><g><svg viewBox="0 0 172.086841432089 191.55844122715712" height="191.55844122715712" width="172.086841432089"><g transform="matrix(1,0,0,1,0,0)"><svg width="172.086841432089" viewBox="2 -36 32.7 36.4" height="191.55844122715712" data-palette-color="#ffffff"><path d="M15.95-1.55Q15.95-0.9 12.88-0.5 9.8-0.1 6.75-0.1 3.7-0.1 2.85-0.45 2-0.8 2-1.55L2-1.55 2-32.2Q2-33.5 4.83-34.5 7.65-35.5 11.35-35.5L11.35-35.5Q14.4-35.5 15.3-34.3L15.3-34.3Q15.95-33.45 15.95-32.75L15.95-32.75 15.95-24.5 16.35-24.5Q16.35-24.75 17.85-28.65L17.85-28.65Q20.7-36 22-36L22-36Q24.45-36 28.9-34.55L28.9-34.55Q31.05-33.85 32.6-32.52 34.15-31.2 34.15-29.6L34.15-29.6Q34.15-28.6 32.13-25.73 30.1-22.85 26-18.05L26-18.05Q26.95-17.05 28.4-15.5 29.85-13.95 32.27-10.88 34.7-7.8 34.7-6.5 34.7-5.2 32.35-3.48 30-1.75 27.35-0.68 24.7 0.4 23.4 0.4L23.4 0.4Q22.55 0.4 21.08-2.18 19.6-4.75 17.5-9.9L17.5-9.9 15.95-8.05 15.95-1.55Z" opacity="1" transform="matrix(1,0,0,1,0,0)" fill="#ffffff" class="wordmark-text-0" data-fill-palette-color="quaternary" id="text-0"></path></svg></g></svg></g></svg></g></svg></g><g></g></svg></g></svg></g></svg></g><defs></defs></svg><rect width="333.90454557049503" height="333.90454557049503" fill="none" stroke="none" visibility="hidden"></rect></g></svg></g></svg>