<svg xmlns="http://www.w3.org/2000/svg" version="1.1" xmlns:xlink="http://www.w3.org/1999/xlink" xmlns:svgjs="http://svgjs.dev/svgjs" width="1500" height="1687" viewBox="0 0 1500 1687"><g transform="matrix(1,0,0,1,0,0)"><svg viewBox="0 0 320 360" data-background-color="#7902f5" preserveAspectRatio="xMidYMid meet" height="1687" width="1500" xmlns="http://www.w3.org/2000/svg" xmlns:xlink="http://www.w3.org/1999/xlink"><g id="tight-bounds" transform="matrix(1,0,0,1,0,0)"><svg viewBox="0 0 320 360" height="360" width="320"><g><svg></svg></g><g><svg viewBox="0 0 320 360" height="360" width="320"><g><path d="M320 187.111c0-45.764-20.238-86.866-52.203-114.908-28.043-31.964-69.145-52.203-114.908-52.203-84.302 0-152.889 68.587-152.889 152.889 0 45.753 20.231 86.848 52.185 114.891 28.043 31.975 69.152 52.22 114.926 52.22 0.299 0 0.59-0.021 0.889-0.021 0.299 0 0.59 0.021 0.889 0.021 83.456 0 151.111-67.655 151.111-151.111 0-0.299-0.021-0.59-0.021-0.889 0-0.299 0.021-0.59 0.021-0.889zM59.833 263.097c-15.093-21.255-24.071-47.143-24.256-75.097 0.48-72.928 59.492-131.943 132.423-132.423 27.954 0.185 53.845 9.163 75.097 24.256 24.366 23.627 39.57 56.64 39.57 93.056 0 71.559-58.219 129.778-129.778 129.778-36.416 0-69.429-15.204-93.056-39.57zM3.556 172.889c0-82.343 66.99-149.333 149.333-149.333 35.051 0 67.292 12.167 92.8 32.462-22.98-13.824-49.863-21.796-78.578-21.796-84.302 0-152.889 68.587-152.889 152.889 0 28.708 7.968 55.584 21.785 78.56-20.288-25.5-32.452-57.739-32.451-92.782zM167.111 318.667c-35.84 0-68.363-14.418-92.107-37.743 21.952 15.89 48.864 25.298 77.885 25.298 73.522 0 133.333-59.812 133.333-133.333 0-29.02-9.408-55.932-25.298-77.885 23.324 23.744 37.742 56.267 37.743 92.107 0 72.54-59.015 131.556-131.556 131.556z" fill="#e1e1e3" fill-rule="nonzero" stroke="none" stroke-width="1" stroke-linecap="butt" stroke-linejoin="miter" stroke-miterlimit="10" stroke-dasharray="" stroke-dashoffset="0" font-family="none" font-weight="none" font-size="none" text-anchor="none" style="mix-blend-mode: normal" data-fill-palette-color="tertiary"></path></g><g transform="matrix(1,0,0,1,87.23351648351647,99)"><svg viewBox="0 0 145.53296703296706 162" height="162" width="145.53296703296706"><g><svg viewBox="0 0 145.53296703296706 162" height="162" width="145.53296703296706"><g><svg viewBox="0 0 145.53296703296706 162" height="162" width="145.53296703296706"><g id="textblocktransform"><svg viewBox="0 0 145.53296703296706 162" height="162" width="145.53296703296706" id="textblock"><g><svg viewBox="0 0 145.53296703296706 162" height="162" width="145.53296703296706"><g transform="matrix(1,0,0,1,0,0)"><svg width="145.53296703296706" viewBox="2 -36 32.7 36.4" height="162" data-palette-color="#e1e1e3"><path d="M15.95-1.55Q15.95-0.9 12.88-0.5 9.8-0.1 6.75-0.1 3.7-0.1 2.85-0.45 2-0.8 2-1.55L2-1.55 2-32.2Q2-33.5 4.83-34.5 7.65-35.5 11.35-35.5L11.35-35.5Q14.4-35.5 15.3-34.3L15.3-34.3Q15.95-33.45 15.95-32.75L15.95-32.75 15.95-24.5 16.35-24.5Q16.35-24.75 17.85-28.65L17.85-28.65Q20.7-36 22-36L22-36Q24.45-36 28.9-34.55L28.9-34.55Q31.05-33.85 32.6-32.52 34.15-31.2 34.15-29.6L34.15-29.6Q34.15-28.6 32.13-25.73 30.1-22.85 26-18.05L26-18.05Q26.95-17.05 28.4-15.5 29.85-13.95 32.27-10.88 34.7-7.8 34.7-6.5 34.7-5.2 32.35-3.48 30-1.75 27.35-0.68 24.7 0.4 23.4 0.4L23.4 0.4Q22.55 0.4 21.08-2.18 19.6-4.75 17.5-9.9L17.5-9.9 15.95-8.05 15.95-1.55Z" opacity="1" transform="matrix(1,0,0,1,0,0)" fill="#e1e1e3" class="wordmark-text-0" data-fill-palette-color="primary" id="text-0"></path></svg></g></svg></g></svg></g></svg></g><g></g></svg></g></svg></g></svg></g><defs></defs></svg><rect width="320" height="360" fill="none" stroke="none" visibility="hidden"></rect></g></svg></g></svg>